<svg xmlns="http://www.w3.org/2000/svg" viewBox="0 0 341.62 74.39"><defs><style>.cls-1{fill:#0066b2;}.cls-1,.cls-2{fill-rule:evenodd;}.cls-2{fill:#f48120;}</style></defs><g id="Layer_2" data-name="Layer 2"><g id="Layer_1-2" data-name="Layer 1"><path class="cls-1" d="M271.86,63.85v-5.6a2.58,2.58,0,0,0,1.82-.76,2.87,2.87,0,0,0,.73-2.06V37.8a2.19,2.19,0,0,0-.73-1.7,2.89,2.89,0,0,0-1.82-.64v-5.6H272a8.32,8.32,0,0,1,6.12,2.34,8.11,8.11,0,0,1,2.39,6V55a8.91,8.91,0,0,1-2.34,6.53,8.57,8.57,0,0,1-6.33,2.36Zm31-33.19V63.05h-6V59.48a13.16,13.16,0,0,1-3.47,3,7,7,0,0,1-3.52,1,3.63,3.63,0,0,1-3.15-1.44,7.21,7.21,0,0,1-1.06-4.33V30.66h6V55.51a2.85,2.85,0,0,0,.4,1.67,1.37,1.37,0,0,0,1.2.5A3.34,3.34,0,0,0,295,57a9,9,0,0,0,1.86-1.75V30.66Zm5.86,32.39V30.66h6.1v4.42a9.47,9.47,0,0,1,2.76-3.57,5.9,5.9,0,0,1,3.65-1.2h.61V37a3.82,3.82,0,0,0-.92-.3,5.15,5.15,0,0,0-1.07-.12A4.89,4.89,0,0,0,316.16,38a5.33,5.33,0,0,0-1.35,3.83V63.05ZM323,54.25l5.83-1.3A8.77,8.77,0,0,0,330.2,57a3.21,3.21,0,0,0,2.65,1.23,2.72,2.72,0,0,0,2-.78,2.88,2.88,0,0,0,.76-2.08c0-1.68-2-4.07-6.15-7.17l-.14-.11A16.25,16.25,0,0,1,325,43.62a9.46,9.46,0,0,1-1.3-4.95,8.61,8.61,0,0,1,2.46-6.4,8.76,8.76,0,0,1,6.43-2.41,8.24,8.24,0,0,1,6.05,2.24,9.14,9.14,0,0,1,2.57,6.15l-5.69,1.35a6.83,6.83,0,0,0-1.14-3.08,2.76,2.76,0,0,0-4-.23,2.92,2.92,0,0,0-.68,2.05c0,1.42,1.42,3.27,4.28,5.51.78.64,1.37,1.11,1.79,1.47a20.16,20.16,0,0,1,4.61,5,9.37,9.37,0,0,1,1.26,4.8,8.56,8.56,0,0,1-2.49,6.43,9,9,0,0,1-6.54,2.41,8.73,8.73,0,0,1-6.43-2.55A11.67,11.67,0,0,1,323,54.25ZM263.79,19.17h.74v6.34h-.74V19.17Zm8.07,10.69v5.6h-.1a2.45,2.45,0,0,0-1.77.64,2.23,2.23,0,0,0-.69,1.7V55.43a3.14,3.14,0,0,0,.64,2.09,2.27,2.27,0,0,0,1.82.73h.1v5.6h-.1a8.08,8.08,0,0,1-8-4.94V34.4a7.06,7.06,0,0,1,1.71-2.32A9.22,9.22,0,0,1,271.86,29.86ZM243.7,25.51V19.17h20.09v6.34h-6.31V63.05h-6.76V25.51Zm20.09,8.89a9,9,0,0,0-.73,3.66V54.84a10.9,10.9,0,0,0,.73,4.07V34.4ZM95.06,62.29V57.78A5.05,5.05,0,0,0,97.89,55V46.57a20.4,20.4,0,0,0-2.83,2.1V43.52c.87-.54,1.82-1.06,2.83-1.61v-3.5a4.14,4.14,0,0,0-.52-2.22,1.78,1.78,0,0,0-1.51-.73,3,3,0,0,0-.8.09V29.88c.33,0,.66,0,1,0,2.72,0,4.75.82,6.07,2.48s2,4.18,2,7.63V53.78c0,2.18,0,4.07.16,5.67a22.39,22.39,0,0,0,.43,3.6h-6a6,6,0,0,1-.38-1.52,15.66,15.66,0,0,1-.19-2.12,11.52,11.52,0,0,1-3,2.88Zm12.22-31.63H113l3.74,20.76h.23l3-20.76h6l-6.83,34.63c-.57,2.84-1.52,4.9-2.89,6.1a8.51,8.51,0,0,1-5.93,1.85H109c-.36,0-.74,0-1.12-.1V67.37H109a5,5,0,0,0,3.66-1.13A6.57,6.57,0,0,0,114,62.29l-6.69-31.63Zm20.14,23.59,5.84-1.3A8.88,8.88,0,0,0,134.6,57a3.16,3.16,0,0,0,2.65,1.23,2.64,2.64,0,0,0,2-.78,2.79,2.79,0,0,0,.76-2.08q0-2.52-6.13-7.17l-.16-.11a17,17,0,0,1-4.35-4.49,9.75,9.75,0,0,1-1.3-4.95,8.61,8.61,0,0,1,2.46-6.4A8.84,8.84,0,0,1,137,29.86a8.31,8.31,0,0,1,6,2.24,9.14,9.14,0,0,1,2.58,6.15L139.9,39.6a6.84,6.84,0,0,0-1.11-3.08,2.55,2.55,0,0,0-2.11-1,2.51,2.51,0,0,0-1.91.76,2.94,2.94,0,0,0-.71,2.05c0,1.42,1.44,3.27,4.3,5.51.76.64,1.37,1.11,1.8,1.47a21,21,0,0,1,4.61,5,9.35,9.35,0,0,1,1.23,4.8,8.65,8.65,0,0,1-2.46,6.43A9,9,0,0,1,137,63.92a8.7,8.7,0,0,1-6.43-2.55A11.91,11.91,0,0,1,127.42,54.25ZM95.06,29.88v5.67a2.46,2.46,0,0,0-1.21.62,2.69,2.69,0,0,0-.73,2V40H87a2.39,2.39,0,0,0,0-.42,3.82,3.82,0,0,1,0-.43,9,9,0,0,1,2.58-6.66,8.62,8.62,0,0,1,5.51-2.58Zm0,13.64v5.15a10.56,10.56,0,0,0-1.61,1.78,7.45,7.45,0,0,0-1.21,4.32,4.52,4.52,0,0,0,.5,2.34,1.46,1.46,0,0,0,1.35.83,2.9,2.9,0,0,0,1-.16v4.51l-.19.1a6.58,6.58,0,0,1-3.57,1.08,4.6,4.6,0,0,1-3.9-1.87A8.61,8.61,0,0,1,86,56.33a11.83,11.83,0,0,1,2.53-7.63,25.1,25.1,0,0,1,6.51-5.18Zm-22,19.15v-4.4A2.79,2.79,0,0,0,74.2,58a5.07,5.07,0,0,0,1.38-1.08V36.69a5.6,5.6,0,0,0-1.3-1,2.93,2.93,0,0,0-1.19-.33V31.09a8.8,8.8,0,0,1,2.49,2.19V19.17h6V63.05h-6V60.49A8.25,8.25,0,0,1,73.09,62.67Zm0-31.58v4.25H73a2.13,2.13,0,0,0-1.75.88,4.3,4.3,0,0,0-.63,2.5V55.46a3.74,3.74,0,0,0,.49,2.17,1.86,1.86,0,0,0,1.59.67,1.42,1.42,0,0,0,.37,0v4.4l-.14.07a6.55,6.55,0,0,1-3.14.73,4.72,4.72,0,0,1-4-1.84,8.65,8.65,0,0,1-1.4-5.3v-18a10.31,10.31,0,0,1,1.49-6,5,5,0,0,1,4.35-2.08A5.57,5.57,0,0,1,73,31s.07,0,.09.07Zm-36.9-.43V63.05h-6V59.48a13,13,0,0,1-3.48,3,6.87,6.87,0,0,1-3.52,1,3.63,3.63,0,0,1-3.14-1.44A7.21,7.21,0,0,1,19,57.75V30.66h6V55.51a2.85,2.85,0,0,0,.4,1.67,1.39,1.39,0,0,0,1.21.5,3.31,3.31,0,0,0,1.7-.66,9.27,9.27,0,0,0,1.87-1.75V30.66Zm5.86,32.39V30.66h6.1v3.57a13.82,13.82,0,0,1,3.43-3,7.21,7.21,0,0,1,3.45-1,3.67,3.67,0,0,1,3.19,1.44A7.1,7.1,0,0,1,59.29,36V63.05h-6V38.6a4,4,0,0,0-.35-2,1.48,1.48,0,0,0-1.26-.52,3.36,3.36,0,0,0-1.68.69,9.31,9.31,0,0,0-1.82,1.75V63.05Zm-42,0V19.17H17.64v6.34H6.76V37h7.83v6.33H6.76V63.05Z"/><path class="cls-1" d="M202.66.59A37.91,37.91,0,0,0,196,0a37.2,37.2,0,0,0,0,74.39,37.91,37.91,0,0,0,6.62-.59,44.16,44.16,0,0,1-17.85-24.2h-.07A79.57,79.57,0,0,1,164.39,47a37.57,37.57,0,0,1-1.49-9.36,78.39,78.39,0,0,0,20.31,3.29c-.12-1.23-.17-2.46-.17-3.71A44,44,0,0,1,202.66.59Z"/><path class="cls-2" d="M233.25,37.19A37.18,37.18,0,0,0,210.44,2.91a38.06,38.06,0,0,0-21.51,34.28c0,1.15,0,2.31.14,3.45a90.35,90.35,0,0,0,20.35-4.76c-.54-1.34-1.11-2.67-1.67-4a75.57,75.57,0,0,0,10.47-.69A84.12,84.12,0,0,0,228,29a55,55,0,0,1-5.25,9.53,68.94,68.94,0,0,1-8.23,9.26c-.56-1.32-1.11-2.64-1.68-4a101.65,101.65,0,0,1-21.93,5.34,38.37,38.37,0,0,0,19.57,22.32A37.26,37.26,0,0,0,233.25,37.19Z"/></g></g></svg>